<svg xmlns="http://www.w3.org/2000/svg" x="0px" y="0px" viewBox="0 0 36 36" class="svgicon center-block replaced-svg"><path d="M26.996 0H9.003C4.045 0 .013 4.02.013 8.96v18.08c0 4.94 4.032 8.96 8.99 8.96h17.993c4.957 0 8.99-4.02 8.99-8.96V8.96c0-4.94-4.033-8.96-8.99-8.96zm5.66 27.04c0 3.11-2.54 5.64-5.66 5.64H9.003c-3.12 0-5.66-2.53-5.66-5.64V15.36h7.112c-.52 1.1-.81 2.323-.81 3.615 0 4.694 3.83 8.512 8.538 8.512 4.71 0 8.54-3.818 8.54-8.513 0-1.292-.292-2.517-.812-3.615h6.745V27.04zM14.64 18.977c0-1.947 1.59-3.532 3.544-3.532s3.545 1.585 3.545 3.532c0 1.95-1.59 3.534-3.546 3.534s-3.545-1.585-3.545-3.534zm18.016-6.935h-9.53c-1.397-.99-3.1-1.575-4.942-1.575-1.84 0-3.545.585-4.94 1.575h-9.9V8.96c0-3.11 2.538-5.642 5.66-5.642h17.992c3.12 0 5.66 2.53 5.66 5.642v3.083zM29.05 5.33H25.96c-.55 0-.998.45-.998.997v3.075c0 .548.448.996.998.996h3.087c.548 0 .998-.448.998-.996V6.327c0-.548-.45-.996-1-.996z"></path></svg>